<?xml version="1.0" encoding="utf-8"?>
<!-- Generator: Adobe Illustrator 25.1.0, SVG Export Plug-In . SVG Version: 6.00 Build 0)  -->
<svg version="1.1" id="Layer_1" xmlns="http://www.w3.org/2000/svg" xmlns:xlink="http://www.w3.org/1999/xlink" x="0px" y="0px"
	 viewBox="0 0 240 236" style="enable-background:new 0 0 240 236;" xml:space="preserve">
<style type="text/css">
	.st0{fill:#FFFFFF;}
	.st1{fill:#EBEBEB;}
	.st2{fill:#FFD42D;}
</style>
<g>
	<path class="st0" d="M168,200.2c6.3-2,12.1-2.7,16.5-5.6c4.8-3.2,8.6-3.2,13-0.4c0.9,0.6,2,0.9,3,1.3c-3.9-9.1-5.8-18.3-4.6-28.1
		c0.3-2.6,0.7-4.1,3.3-4.5c7.4-1.1,14.7-2.2,22.1-3.3c1.2-0.2,2.4-0.3,3-0.4c-4.5-5.5-9.3-10.6-13-16.3c-5.5-8.5-5.3-9.2,3.4-14.6
		c6-3.7,12.3-6.8,19-10.5c-2.4-1.1-4.5-1.9-6.5-3c-5.4-3.2-10.9-6.3-16.1-9.8c-3.2-2.1-3.4-4.6-1-7.9c5.1-6.8,9.8-13.9,14.3-20.3
		c-6.9-1-14.3-1.6-21.5-3.2c-8.7-1.9-9.5-3.4-7.1-12.1c2.1-7.4,4.6-14.7,7.1-22.5c-1.4,0.6-2.5,1.1-3.7,1.5
		c-7.4,2.5-14.7,5.2-22.2,7.3c-3.6,1-7,0.3-7.6-4.5c-0.8-5.9-1.6-11.8-2.4-17.7c-0.3-2.5-0.5-5-0.7-7.5c-0.5-0.2-1-0.5-1.5-0.7
		c-2.4,2.7-4.6,5.7-7.3,8.1c-3.9,3.4-8,6.4-12.3,9.2c-3.2,2.1-5.9,1.6-8.3-2c-4.5-6.7-8.7-13.4-10-21.5c-0.2-1.2-0.8-2.3-1.3-3.9
		c-2.4,5.5-4,10.8-6.8,15.4c-9.2,14.9-9.8,15.2-24,4.8c-4.2-3.1-8-6.7-11.3-9.5c-1.5,8.8-3,17.7-4.5,26.6c-0.6,3.4-2.7,4.4-6.1,4
		c-9.8-1.1-18.8-3.9-26.7-10.4c0.3,2,1.2,3.7,1.7,5.5c2.2,7.5,4.2,15,6.4,22.4c1,3.4-0.8,4.6-3.6,5.8C42.5,75.3,34,76.6,24,75.3
		c1.6,1.7,2.3,2.5,3,3.3c3.7,4.5,7.6,8.8,11.1,13.5c0.8,1.1,1.2,3.3,0.6,4.4c-2.6,4.7-5.6,9.3-8.6,13.7c-0.7,1-2,1.7-3.2,2.2
		c-3.8,1.9-7.7,3.6-12.7,5.9c4.7,2.1,8.3,3.6,12.4,5.5c-2,1.3-3.4,2.1-4.7,3.1c-9.5,7.2-15.3,17-14.8,28.6
		c0.9,21.2,15.3,32.3,35.4,30.7c4.3-0.3,6.3,1.5,6.1,5.9c0,0.8-0.1,1.5-0.2,2.3c0.2-0.4,0.4-0.8,0.7-1.3c10.2,5.5,20.5,10.5,33,9.3
		c0,5.8,0,10.9,0,16.1c0.5,0.3,0.9,0.5,1.4,0.8c4.6-4.1,9.6-7.9,13.9-12.4c8-8.2,12.1-8.1,17.9,1.6c3.7,6.1,6.8,12.7,10.1,19
		c3.7-7,7.1-14.1,11-21c3.3-5.8,5.8-6.6,11.3-2.7c7.1,5,13.7,10.6,20.6,16.1C168,213.6,168,206.5,168,200.2z"/>
	<path d="M168,200.2c0,6.3,0,13.4,0,20c-6.9-5.5-13.5-11.1-20.6-16.1c-5.4-3.8-8-3.1-11.3,2.7c-3.9,6.9-7.4,14-11,21
		c-3.3-6.3-6.4-12.9-10.1-19c-5.9-9.6-9.9-9.7-17.9-1.6c-4.3,4.4-9.2,8.3-13.9,12.4c-0.5-0.3-0.9-0.5-1.4-0.8c0-5.2,0-10.3,0-16.1
		c-12.5,1.2-22.8-3.7-33-9.3c-0.2,0.4-0.4,0.8-0.7,1.3c0.1-0.8,0.2-1.5,0.2-2.3c0.2-4.4-1.8-6.2-6.1-5.9
		c-20.1,1.6-34.5-9.5-35.4-30.7c-0.5-11.7,5.2-21.5,14.8-28.6c1.3-1,2.7-1.8,4.7-3.1c-4.1-1.8-7.7-3.4-12.4-5.5
		c5-2.3,8.9-4.1,12.7-5.9c1.2-0.6,2.5-1.2,3.2-2.2c3-4.5,6-9,8.6-13.7c0.6-1.1,0.2-3.3-0.6-4.4c-3.5-4.6-7.3-9-11.1-13.5
		c-0.7-0.8-1.5-1.6-3-3.3c10,1.3,18.5,0,26.7-3.4c2.8-1.1,4.7-2.3,3.6-5.8c-2.2-7.5-4.2-15-6.4-22.4c-0.5-1.8-1.4-3.5-1.7-5.5
		c7.9,6.5,16.9,9.3,26.7,10.4c3.5,0.4,5.5-0.5,6.1-4c1.5-8.9,3-17.8,4.5-26.6c3.3,2.8,7.1,6.4,11.3,9.5c14.2,10.4,14.8,10.2,24-4.8
		c2.8-4.5,4.4-9.8,6.8-15.4c0.6,1.6,1.1,2.7,1.3,3.9c1.3,8.1,5.5,14.8,10,21.5c2.4,3.6,5.2,4.1,8.3,2c4.3-2.8,8.4-5.9,12.3-9.2
		c2.7-2.4,4.9-5.4,7.3-8.1c0.5,0.2,1,0.5,1.5,0.7c0.2,2.5,0.4,5,0.7,7.5c0.7,5.9,1.6,11.8,2.4,17.7c0.6,4.8,4,5.5,7.6,4.5
		c7.5-2.2,14.8-4.8,22.2-7.3c1.2-0.4,2.3-0.9,3.7-1.5c-2.5,7.8-5,15.1-7.1,22.5c-2.4,8.7-1.6,10.3,7.1,12.1
		c7.2,1.5,14.6,2.2,21.5,3.2c-4.5,6.4-9.2,13.5-14.3,20.3c-2.4,3.3-2.2,5.8,1,7.9c5.3,3.4,10.7,6.6,16.1,9.8c2,1.1,4.1,1.9,6.5,3
		c-6.7,3.6-13,6.7-19,10.5c-8.6,5.4-8.9,6.1-3.4,14.6c3.7,5.8,8.6,10.8,13,16.3c-0.6,0.1-1.8,0.2-3,0.4c-7.4,1.1-14.7,2.2-22.1,3.3
		c-2.6,0.4-3,1.9-3.3,4.5c-1.3,9.8,0.7,19,4.6,28.1c-1-0.4-2.1-0.7-3-1.3c-4.4-2.8-8.2-2.8-13,0.4
		C180.1,197.5,174.3,198.2,168,200.2z M45.8,183.1c2.1,2.8,4,6.5,7,9.1c5.9,5.1,12.3,8.2,21,7.9c4.5-0.2,9.7,0.8,14.4,0.5
		c9.3-0.5,17.1-4.9,24.6-10.3c-1.9,2.1-3.8,4.2-5.9,6.6c12.9,8.1,25.6,6.4,38.5,1.5c3.4-1.3,6.4-2.6,3.6-5.7c6,1.3,12.7,3,19.4,3.9
		c11.4,1.6,23.3-6,25.4-19.5c2.5-15.6-1.3-32.7-20.5-39.2c-4.4-1.5-9-2.4-13.7-3.7c-3.3-13.9-12.2-24.1-25.5-30.5
		c-13.6-6.5-26.7-4.9-39.1,4.2c-0.1-0.5-0.2-1-0.3-1.5c3.8-2.3,7.5-4.6,11.3-6.8C93.9,83.8,76.9,80,56.1,86.2
		c-14.3,4.2-27.6,22.8-26.8,36c2.8-0.4,5.6-0.8,8.3-1.2c-3,2.1-6.1,3-9.2,4.2c-14.6,5.5-21.8,21.2-19.3,36.6
		c2.1,12.9,13.4,22.9,29.1,22.9C41,184.9,43.6,183.7,45.8,183.1z M219.7,79.3c-5.9-1-11.7-1.8-17.5-3c-8.6-1.8-10.8-4.8-9-13.1
		c1.4-6.4,3.4-12.6,5.3-19.5c-2.8,1-5.3,1.9-7.8,2.6c-5.6,1.5-11.2,3-16.8,4.4c-2.9,0.7-5-0.4-5.6-3.3c-1.3-6.1-2.5-12.3-3.5-18.4
		c-0.3-2.1-0.1-4.4-0.1-6.2c-8.2,6.1-16.1,11.9-24.9,18.4c-5.7-8.6-10.8-16.3-15.4-23.3c-3.5,4.9-7.4,10.6-11.4,16.2
		c-2.8,4-6.2,4.2-10.1,1.6c-6.1-4.1-12.2-8.2-17.8-12C83.6,30.8,82,38,80.7,45.2c-1,5.4-4.1,6.6-8.9,5.5c-6.8-1.6-13.6-3-20.2-4.5
		c1.5,5.9,3.3,12.1,4.7,18.4c1.5,6.6,0.1,8.7-6.5,10.3c-6.5,1.6-13,2.9-19.3,4.3c3.6,4.6,7.3,9.4,11,14.2c2.2-1.7,4-3.4,6-4.7
		c13.9-8.8,40-10.3,53,3.2c4.4,4.6,9,7,16.4,6.9c20-0.3,36.2,12.5,43.3,31.8c0.5,1.3,2.2,2.8,3.6,3.1c14.8,2.9,26.6,9.2,31.4,24.7
		c0.4,1.1,2.3,2.7,3.2,2.6c6.9-1.3,13.7-3,19.4-4.3c-3.7-6-7.8-12.4-11.7-18.8c-2-3.2-0.6-5.6,2.2-7.4c6.3-4.1,12.7-8.2,19.2-12.5
		c-1-0.6-2.2-1.1-3.3-1.8c-5.3-3.6-10.7-7-16-10.8c-3-2.1-2.8-4.8-0.7-7.7C211.8,91.5,215.8,85.2,219.7,79.3z M135.1,204.1
		c-3.8,0-7.4,0.2-10.9-0.1c-3.6-0.3-7.2-1-10.5-1.4c3.8,6.5,7.7,13,11.7,19.8C128.8,216,132,209.9,135.1,204.1z M146.9,200.7
		c5.7,4.3,11.6,8.7,18.1,13.6c0.4-5.8,0.7-10.7,1-15.9C159,198.9,152,191.9,146.9,200.7z M105.3,198.2c-6.5,1.7-13.7,3.7-21.1,5.6
		c0.3,3.4,0.5,6.9,0.8,11.3C92.3,209.1,99,203.6,105.3,198.2z M18.7,118.4c2.9,1.1,5.1,1.9,7.4,2.8c0.5-2.3,1-4.1,1.5-6.4
		C24.4,116.1,21.9,117.2,18.7,118.4z"/>
	<path class="st1" d="M45.8,183.1c-2.2,0.6-4.8,1.8-7.5,1.8c-15.7-0.1-27.1-10-29.1-22.9c-2.5-15.4,4.7-31.2,19.3-36.6
		c3-1.1,6.1-2.1,9.2-4.2c-2.8,0.4-5.6,0.8-8.3,1.2c-0.9-13.2,12.5-31.8,26.8-36C77,80.2,94.1,84,106.1,99.8
		c-3.8,2.3-7.5,4.6-11.3,6.8c0.1,0.5,0.2,1,0.3,1.5c12.4-9.1,25.5-10.7,39.1-4.2c13.3,6.3,22.1,16.5,25.5,30.5
		c4.7,1.2,9.3,2.2,13.7,3.7c19.2,6.4,23,23.6,20.5,39.2c-2.1,13.5-14,21-25.4,19.5c-6.7-0.9-13.4-2.7-19.4-3.9
		c2.8,3.1-0.2,4.4-3.6,5.7c-12.9,4.8-25.7,6.6-38.5-1.5c2.1-2.3,4-4.4,5.9-6.6c-7.4,5.4-15.3,9.8-24.6,10.3
		c-4.8,0.3-10-0.7-14.4-0.5c-8.7,0.3-15.1-2.7-21-7.9C49.8,189.6,47.9,185.9,45.8,183.1z"/>
	<path class="st2" d="M219.7,79.3c-3.9,5.9-7.9,12.2-12.1,18.3c-2,3-2.3,5.6,0.7,7.7c5.2,3.7,10.6,7.2,16,10.8
		c1.1,0.7,2.2,1.2,3.3,1.8c-6.5,4.2-12.8,8.3-19.2,12.5c-2.8,1.8-4.2,4.2-2.2,7.4c4,6.5,8,12.9,11.7,18.8c-5.8,1.3-12.5,3-19.4,4.3
		c-0.9,0.2-2.9-1.4-3.2-2.6c-4.8-15.5-16.7-21.8-31.4-24.7c-1.4-0.3-3.1-1.8-3.6-3.1c-7.1-19.2-23.2-32.1-43.3-31.8
		c-7.4,0.1-12-2.3-16.4-6.9c-13-13.6-39.1-12-53-3.2c-2.1,1.3-3.9,3-6,4.7c-3.7-4.8-7.4-9.6-11-14.2c6.3-1.4,12.8-2.8,19.3-4.3
		c6.6-1.6,8-3.8,6.5-10.3C55,58.2,53.2,52,51.7,46.1c6.5,1.4,13.4,2.9,20.2,4.5c4.8,1.1,7.9-0.1,8.9-5.5c1.3-7.3,2.9-14.5,4.4-21.5
		c5.6,3.8,11.8,7.8,17.8,12c3.9,2.6,7.3,2.4,10.1-1.6c4-5.6,7.9-11.2,11.4-16.2c4.6,7,9.7,14.7,15.4,23.3
		c8.8-6.5,16.7-12.3,24.9-18.4c0,1.8-0.3,4,0.1,6.2c1,6.2,2.2,12.3,3.5,18.4c0.6,3,2.7,4.1,5.6,3.3c5.6-1.4,11.2-2.9,16.8-4.4
		c2.5-0.7,5-1.7,7.8-2.6c-1.9,6.9-3.9,13.1-5.3,19.5c-1.8,8.3,0.4,11.3,9,13.1C208,77.5,213.8,78.3,219.7,79.3z"/>
	<path class="st2" d="M135.1,204.1c-3,5.7-6.3,11.8-9.7,18.3c-4-6.8-7.8-13.3-11.7-19.8c3.2,0.5,6.8,1.2,10.5,1.4
		C127.7,204.3,131.3,204.1,135.1,204.1z"/>
	<path class="st2" d="M146.9,200.7c5.1-8.8,12.1-1.9,19.1-2.3c-0.3,5.2-0.6,10.1-1,15.9C158.5,209.4,152.6,205,146.9,200.7z"/>
	<path class="st2" d="M105.3,198.2c-6.4,5.3-13,10.9-20.3,17c-0.3-4.4-0.6-7.9-0.8-11.3C91.6,201.9,98.8,200,105.3,198.2z"/>
	<path class="st2" d="M18.7,118.4c3.1-1.3,5.7-2.3,8.9-3.6c-0.5,2.3-0.9,4-1.5,6.4C23.8,120.3,21.6,119.5,18.7,118.4z"/>
</g>
</svg>
