<?xml version="1.0" encoding="utf-8"?>
<!-- Generator: Adobe Illustrator 25.1.0, SVG Export Plug-In . SVG Version: 6.00 Build 0)  -->
<svg version="1.1" xmlns="http://www.w3.org/2000/svg" xmlns:xlink="http://www.w3.org/1999/xlink" x="0px" y="0px"
	 viewBox="0 0 487.1 412.8" style="enable-background:new 0 0 487.1 412.8;" xml:space="preserve">
<style type="text/css">
	.st0{fill:#ED553B;}
	.st1{fill:#F6D55C;}
	.st2{fill:#3CAEA3;}
	.st3{fill:#173F7D;}
</style>
<g id="Layer_2">
</g>
<g id="Layer_1">
	<g>
		<path d="M465.5,224.2c-1-4.1-159.3-79.9-162.2-81.7c-113.8,66.7-216.5-35.7-216.5-35.7c5.2,8.9,121.4,81.2,231.2,5.3
			c-34.6-22.2-120.3-44.5-177-77c-10.9-6.2-21.5-21.5-46.2-28C59.1-2.3,29,32.5,29,32.5S14.7,38.6,4.8,42.9
			c-6.9,3,16.4,8.2,24.6,17.4s-0.1,32.2,0,43c1.2,88.4,142.3,109.6,146.4,114.3c4.1,4.7-10.2,20.9-10.2,20.9s6.1,1,10.2,0
			c4.1-1,14.3-20.9,14.3-20.9c52.2,2.7,131.4-39.4,150.5-34.4c17,4.5,116.7,50.2,120.8,50.2C465.5,233.4,466.5,228.2,465.5,224.2z
			 M54.9,42.4c-3.2,0-5.8-2.6-5.8-5.8c0-3.2,2.6-5.8,5.8-5.8c3.2,0,5.8,2.6,5.8,5.8C60.6,39.8,58,42.4,54.9,42.4z"/>
		<path class="st0" d="M207.6,65.8C172,98.1,95.8,114.1,95.8,114.1c10.1,6.5,30.4,17.2,55.5,24.2c30.8-3.2,62-15,88.7-41.8
			c1.4,0.5,31,3.9,64,8C279.9,92.4,243.6,80.1,207.6,65.8z"/>
		<path class="st1" d="M234.5,76.2C187.6,112,96.7,114.6,96.7,114.6c1.9,1.7,47.8,25.6,88.8,30.4c15.7-4.1,31.6-11.3,47.4-22.7
			c1,0.5,19.8,5.3,44.4,11.5c13.6-5.3,27.2-12.4,40.8-21.8C300.3,100.6,268.7,89.1,234.5,76.2z"/>
		<path class="st2" d="M261.7,86.5c-59,41.7-164.2,28.7-164.2,28.7c11.2,7.3,46.2,24.7,86.6,29.7c28-0.7,57.7-9.1,86.6-31.1
			c0.8,0.4,12.8,3.9,30,9c5.8-3.2,11.6-6.8,17.4-10.7C305.1,103.8,284.9,95.4,261.7,86.5z"/>
		<path class="st3" d="M290.5,98.1L290.5,98.1C218.1,148,98.5,115.8,98.5,115.8c26.7,16,78.8,38.7,143.9,27.7
			c13-2.2,26.3-6,39.7-11.6c12-5,24-11.5,36-19.8C310.9,107.5,301.5,102.8,290.5,98.1z"/>
	</g>
	<g>
		<path d="M11.6,252.8c0.5,0,1.2-0.1,2.2-0.2c0.9-0.1,1.9-0.2,3-0.3s2.1-0.2,3.2-0.2c1.1,0,2-0.1,2.9-0.1c5.9,0,10.5,1.1,13.7,3.4
			c3.2,2.3,4.8,5.9,4.8,10.7c0,1.6-0.2,3-0.7,4.3c-0.5,1.3-1.1,2.4-1.9,3.5c-0.8,1-1.7,1.9-2.8,2.6c-1.1,0.7-2.2,1.2-3.4,1.6
			c1.6,0.2,3.1,0.6,4.5,1.2c1.5,0.6,2.8,1.5,3.9,2.6c1.1,1.1,2,2.5,2.7,4.2c0.7,1.7,1,3.7,1,6.1c0,2.7-0.5,5.1-1.6,7
			c-1.1,2-2.6,3.6-4.5,4.9c-1.9,1.3-4.2,2.3-6.9,2.9c-2.6,0.6-5.5,0.9-8.6,0.9c-0.8,0-1.7,0-2.7-0.1c-1-0.1-2-0.1-3.1-0.2
			c-1-0.1-2-0.2-3-0.3c-1-0.1-1.8-0.2-2.5-0.3V252.8z M23.9,275.9c4.1,0,7.1-0.9,8.9-2.7c1.9-1.8,2.8-4.2,2.8-7.1c0-2.7-1-5-3-6.8
			c-2-1.8-5.1-2.8-9.4-2.8c-1.3,0-2.6,0.1-3.7,0.2c-1.2,0.1-2.1,0.2-2.8,0.3v18.9H23.9z M16.8,302.9c0.7,0.1,1.6,0.2,2.8,0.3
			c1.2,0.1,2.4,0.1,3.7,0.1c2,0,3.9-0.2,5.8-0.5c1.9-0.4,3.6-1,5-1.8c1.5-0.9,2.6-2,3.5-3.4c0.9-1.4,1.3-3.2,1.3-5.3
			s-0.4-3.9-1.1-5.3c-0.8-1.4-1.8-2.6-3.1-3.5c-1.3-0.9-2.8-1.6-4.6-2c-1.8-0.4-3.6-0.6-5.7-0.6h-7.7V302.9z"/>
		<path d="M66,252.8c0.4,0,0.8-0.1,1.3-0.1c0.5,0,1,0,1.4,0c0.5,0,0.9,0,1.4,0c0.5,0,0.9,0.1,1.2,0.1v54.3c-0.4,0-0.8,0.1-1.2,0.1
			c-0.5,0-0.9,0-1.4,0c-0.5,0-1,0-1.5,0c-0.5,0-0.9-0.1-1.2-0.1V252.8z"/>
		<path d="M96.5,252.6c1.1-0.1,2.1-0.2,2.9-0.3c0.8-0.1,1.6-0.2,2.4-0.2c0.8-0.1,1.6-0.1,2.5-0.2c0.9,0,1.9,0,3,0
			c2.4,0,4.8,0.3,7.1,0.8c2.3,0.5,4.4,1.4,6.3,2.6c1.9,1.2,3.4,2.9,4.5,5c1.1,2.1,1.7,4.7,1.7,7.9c0,2-0.4,3.7-1.1,5.4
			c-0.7,1.6-1.6,3.1-2.8,4.3c-1.1,1.3-2.4,2.4-3.9,3.3c-1.5,0.9-3,1.7-4.6,2.3l-0.6,0.2l17.3,23.4c-0.5,0.1-1,0.2-1.5,0.2
			c-0.5,0-1,0-1.5,0s-1,0-1.5,0c-0.5,0-1-0.1-1.5-0.2l-19-25.1v-0.3l1.7-0.5c1.7-0.5,3.4-1,5-1.8c1.6-0.7,3-1.6,4.3-2.6
			c1.2-1,2.2-2.3,3-3.7c0.8-1.4,1.1-3.1,1.1-5c0-3.9-1.2-6.9-3.6-8.8c-2.4-2-5.7-2.9-9.8-2.9c-1.1,0-2,0-2.9,0.1
			c-0.9,0.1-2,0.2-3.2,0.3v50.3c-0.4,0-0.8,0.1-1.3,0.1c-0.5,0-1,0-1.4,0c-0.5,0-0.9,0-1.4,0c-0.5,0-0.9-0.1-1.2-0.1V252.6z"/>
		<path d="M151,252.8c0.7-0.1,1.6-0.2,2.6-0.3c1-0.1,2.1-0.2,3.3-0.3c1.2-0.1,2.3-0.1,3.5-0.2c1.2,0,2.2-0.1,3.2-0.1
			c4.7,0,8.8,0.6,12.3,1.9c3.5,1.3,6.4,3.1,8.7,5.5c2.3,2.4,4,5.3,5.1,8.8c1.1,3.4,1.7,7.3,1.7,11.7c0,18.8-9.3,28.2-27.8,28.2
			c-1.1,0-2.2,0-3.4-0.1c-1.2-0.1-2.4-0.1-3.5-0.2c-1.1-0.1-2.2-0.2-3.2-0.3c-1-0.1-1.8-0.2-2.5-0.3V252.8z M156.2,302.6
			c0.9,0.1,2,0.2,3.2,0.3c1.2,0.1,2.5,0.2,3.8,0.2c3.5,0,6.6-0.4,9.4-1.1s5.2-2,7.1-3.8c2-1.8,3.5-4.2,4.5-7.2
			c1.1-3,1.6-6.7,1.6-11.2c0-7.8-2-13.5-6-17.2c-4-3.6-9.5-5.5-16.6-5.5c-1.2,0-2.4,0-3.7,0.1c-1.3,0.1-2.4,0.2-3.3,0.3V302.6z"/>
		<path d="M211.8,301.1c0.7,0.2,1.4,0.4,2.2,0.7c0.8,0.3,1.6,0.5,2.5,0.7c0.9,0.2,2,0.4,3.1,0.5c1.2,0.2,2.5,0.2,4,0.2
			c2.4,0,4.5-0.3,6.2-0.9c1.7-0.6,3.2-1.4,4.3-2.3c1.1-1,2-2.1,2.5-3.5c0.6-1.3,0.8-2.8,0.8-4.3c0-1.5-0.2-2.8-0.6-3.9
			c-0.4-1.1-1-2.1-2-3c-0.9-0.9-2.2-1.8-3.8-2.6c-1.6-0.8-3.7-1.7-6.2-2.7c-1.8-0.7-3.4-1.4-5-2.1c-1.6-0.8-3-1.7-4.2-2.8
			c-1.2-1.1-2.2-2.4-2.9-3.9c-0.7-1.5-1.1-3.4-1.1-5.7c0-4.1,1.5-7.4,4.4-9.9c2.9-2.5,7.2-3.8,12.9-3.8c1.1,0,2.2,0.1,3.4,0.2
			c1.1,0.1,2.2,0.2,3.2,0.4c1,0.2,1.9,0.3,2.7,0.5c0.8,0.2,1.5,0.4,2,0.5c-0.1,0.8-0.2,1.5-0.4,2.3c-0.2,0.8-0.4,1.5-0.6,2.2
			c-1.2-0.4-2.8-0.8-4.6-1.1c-1.9-0.3-3.8-0.5-5.6-0.5c-4.2,0-7.2,0.9-9,2.6c-1.8,1.7-2.7,3.9-2.7,6.5c0,1.4,0.3,2.5,0.8,3.5
			c0.6,1,1.3,1.9,2.3,2.6c1,0.8,2.2,1.4,3.5,2.1c1.4,0.6,2.8,1.2,4.4,1.8c2.1,0.9,4.1,1.7,5.9,2.6c1.8,0.9,3.4,2,4.7,3.2
			c1.3,1.2,2.3,2.6,3.1,4.3c0.8,1.6,1.1,3.6,1.1,5.9c0,2.6-0.5,4.9-1.4,7c-0.9,2-2.3,3.8-4,5.1c-1.7,1.4-3.8,2.4-6.3,3.2
			c-2.5,0.7-5.2,1.1-8.3,1.1c-3,0-5.4-0.2-7.4-0.6c-2-0.4-3.8-0.9-5.5-1.5c0.1-0.8,0.3-1.6,0.5-2.5
			C211.2,302.6,211.5,301.8,211.8,301.1z"/>
		<path d="M313.4,308c-3.8,0-7.1-0.7-9.9-2.1c-2.8-1.4-5.1-3.3-7-5.8c-1.8-2.5-3.2-5.5-4.2-8.9c-0.9-3.4-1.4-7.2-1.4-11.3
			s0.5-7.8,1.4-11.2c0.9-3.4,2.3-6.4,4.2-8.9c1.8-2.5,4.2-4.4,7-5.8c2.8-1.4,6.1-2.1,9.9-2.1c3.8,0,7.1,0.7,9.9,2.1
			c2.8,1.4,5.1,3.3,7,5.8c1.8,2.5,3.2,5.4,4.2,8.9c0.9,3.4,1.4,7.2,1.4,11.2s-0.5,7.8-1.4,11.3c-0.9,3.4-2.3,6.4-4.2,8.9
			s-4.2,4.4-7,5.8S317.2,308,313.4,308z M313.4,303.2c2.9,0,5.4-0.6,7.5-1.7c2.1-1.1,3.9-2.7,5.3-4.8c1.4-2.1,2.5-4.5,3.1-7.4
			c0.7-2.9,1-6,1-9.4c0-3.4-0.3-6.6-1-9.4c-0.7-2.9-1.7-5.3-3.1-7.4c-1.4-2-3.2-3.6-5.3-4.8c-2.1-1.1-4.6-1.7-7.5-1.7
			c-2.9,0-5.4,0.6-7.6,1.7c-2.1,1.1-3.9,2.7-5.3,4.8c-1.4,2-2.4,4.5-3.1,7.4c-0.7,2.9-1,6-1,9.4c0,3.4,0.3,6.6,1,9.4
			c0.7,2.9,1.7,5.3,3.1,7.4c1.4,2.1,3.1,3.7,5.3,4.8C308,302.7,310.5,303.2,313.4,303.2z"/>
		<path d="M358.4,252.8H385c0,0.3,0.1,0.7,0.1,1.1c0,0.4,0,0.8,0,1.2c0,0.4,0,0.8,0,1.2c0,0.5-0.1,0.9-0.1,1.2h-21.4v18.3h18.6
			c0,0.3,0.1,0.7,0.1,1.1c0,0.4,0,0.8,0,1.2c0,0.4,0,0.8,0,1.2c0,0.5-0.1,0.9-0.1,1.2h-18.6v26.4c-0.4,0-0.8,0.1-1.2,0.1
			c-0.5,0-0.9,0-1.4,0c-0.5,0-1,0-1.5,0c-0.5,0-0.9-0.1-1.2-0.1V252.8z"/>
		<path d="M447.4,252.8c0.4,0,0.8-0.1,1.4-0.1c0.6,0,1.2,0,1.7,0c0.6,0,1.1,0,1.7,0c0.6,0,1,0.1,1.4,0.1l18.1,54.3
			c-0.3,0-0.7,0.1-1.3,0.1c-0.6,0-1.1,0-1.6,0c-0.5,0-0.9,0-1.4,0c-0.5,0-0.9-0.1-1.3-0.1l-4.5-13.8h-22.3l-4.3,13.8
			c-0.4,0-0.9,0.1-1.4,0.1c-0.5,0-1,0-1.5,0c-0.5,0-1,0-1.5,0c-0.5,0-0.9-0.1-1.2-0.1L447.4,252.8z M460.1,288.5l-9.7-30.2
			l-9.6,30.2H460.1z"/>
		<path d="M11.7,328.2c2.6-0.4,5.5-0.6,8.7-0.6c1.3,0,2.6,0,3.9,0.1c1.3,0.1,2.6,0.2,3.9,0.5l11,57.7l13.2-57.7
			c1.4-0.2,2.7-0.4,3.9-0.5c1.2-0.1,2.5-0.2,3.7-0.2c2.1,0,4.4,0.2,6.9,0.6l13.7,59.1l11-59.1c2.2-0.4,4.5-0.6,6.8-0.6
			c1.4,0,2.8,0.1,4.2,0.2c1.3,0.1,2.7,0.3,3.9,0.4l-18.4,76.6c-2.6,0.4-5.2,0.6-8,0.6c-2.7,0-5.6-0.2-8.8-0.6l-12.3-51l-13.2,51
			c-1.7,0.1-3.2,0.3-4.5,0.4c-1.3,0.1-2.8,0.2-4.3,0.2c-2.2,0-4.6-0.2-7.1-0.6L11.7,328.2z"/>
		<path d="M115.6,328.2h43.5c0.4,2.1,0.6,4.3,0.6,6.5c0,2.3-0.2,4.6-0.6,6.7h-27.9V358h22.2c0.4,2.3,0.6,4.5,0.6,6.6
			c0,2.3-0.2,4.5-0.6,6.7h-22.2v20.2h28.7c0.4,2.1,0.6,4.3,0.6,6.5c0,2.3-0.2,4.6-0.6,6.7h-44.2V328.2z"/>
		<path d="M190,328.2c1.5-0.2,2.9-0.4,4.3-0.5c1.3-0.1,2.8-0.2,4.5-0.2c1.4,0,2.8,0.1,4.2,0.2c1.3,0.1,2.8,0.3,4.5,0.5l24,76.6
			c-2.9,0.4-5.8,0.6-8.5,0.6c-2.7,0-5.3-0.2-7.9-0.6l-4.3-15.3h-25.4l-4.4,15.3c-2.6,0.4-5,0.6-7.4,0.6c-2.6,0-5.2-0.2-7.8-0.6
			L190,328.2z M207,376.5l-8.8-32.2l-9.3,32.2H207z"/>
		<path d="M247.4,341.4h-19.1c-0.4-2.1-0.6-4.4-0.6-6.7c0-2.2,0.2-4.4,0.6-6.5h53.8c0.4,2.1,0.6,4.3,0.6,6.5c0,2.3-0.2,4.6-0.6,6.7
			h-19.1v63.4c-1.3,0.1-2.6,0.3-3.8,0.4c-1.3,0.1-2.5,0.2-3.7,0.2c-1.2,0-2.5,0-3.9-0.1c-1.4-0.1-2.8-0.2-4.2-0.4V341.4z"/>
		<path d="M292.9,328.2c2.6-0.4,5.2-0.6,7.8-0.6s5.2,0.2,7.9,0.6v30.1h25.7v-30.1c2.6-0.4,5.2-0.6,7.8-0.6s5.2,0.2,7.9,0.6v76.6
			c-2.7,0.4-5.3,0.6-7.8,0.6c-2.6,0-5.3-0.2-7.9-0.6v-33.1h-25.7v33.1c-2.7,0.4-5.3,0.6-7.8,0.6c-2.6,0-5.3-0.2-7.9-0.6V328.2z"/>
		<path d="M364.8,328.2h43.5c0.4,2.1,0.6,4.3,0.6,6.5c0,2.3-0.2,4.6-0.6,6.7h-27.9V358h22.2c0.4,2.3,0.6,4.5,0.6,6.6
			c0,2.3-0.2,4.5-0.6,6.7h-22.2v20.2h28.7c0.4,2.1,0.6,4.3,0.6,6.5c0,2.3-0.2,4.6-0.6,6.7h-44.2V328.2z"/>
		<path d="M422.2,328.2c3.1-0.4,6.1-0.7,8.8-0.9c2.7-0.2,5.8-0.4,9.1-0.4c3.9,0,7.8,0.4,11.6,1.1c3.8,0.7,7.2,2,10.3,3.8
			c3.1,1.8,5.5,4.3,7.4,7.4c1.9,3.1,2.8,7,2.8,11.8c0,2.8-0.4,5.3-1.1,7.5c-0.7,2.2-1.6,4.1-2.7,5.7c-1.1,1.6-2.3,3-3.6,4.2
			c-1.3,1.2-2.5,2.1-3.6,2.8l-1.8,1.2l18.6,32.4c-1.4,0.1-2.9,0.3-4.5,0.4c-1.6,0.1-3.2,0.2-4.8,0.2c-2.7,0-5.4-0.2-8-0.6l-20-35.6
			l2.6-1.3c1-0.5,2.2-1.1,3.6-1.9c1.4-0.8,2.8-1.8,4.1-2.9c1.3-1.2,2.4-2.6,3.4-4.3c0.9-1.7,1.4-3.6,1.4-5.9c0-4.5-1.3-7.8-3.8-9.9
			c-2.6-2.1-5.9-3.1-9.9-3.1c-1.6,0-3,0.1-4.3,0.3v64.7c-1.3,0.1-2.6,0.3-3.8,0.4s-2.5,0.2-3.7,0.2c-1.2,0-2.5,0-3.8-0.1
			c-1.4-0.1-2.7-0.2-4.2-0.4V328.2z"/>
	</g>
</g>
</svg>
