<?xml version="1.0" encoding="utf-8"?>
<!-- Generator: Adobe Illustrator 21.1.0, SVG Export Plug-In . SVG Version: 6.00 Build 0)  -->
<svg version="1.1" id="Pinterest" xmlns="http://www.w3.org/2000/svg" xmlns:xlink="http://www.w3.org/1999/xlink" x="0px" y="0px"
	 viewBox="0 0 30 30" style="enable-background:new 0 0 30 30;" xml:space="preserve">
<style type="text/css">
	.st0{fill:none;stroke:#FFFFFF;stroke-width:0.7904;stroke-miterlimit:10;}
	.st1{fill:#FFFFFF;}
</style>
<g>
	<circle class="st0" cx="15" cy="15" r="14"/>
	<path class="st1" d="M12.1,9.3c3.6-1.3,8.1-0.4,9.8,3.5c0.6,1.3,0.7,3.1,0.4,4.7c-0.5,2.1-1.7,4.1-3.7,5c-1.3,0.6-3.1,0.7-4.3-0.3
		c-0.2-0.2-0.4-0.4-0.6-0.6c-0.2,1-0.5,1.9-0.7,2.8c-0.3,1.1-0.9,2.4-1.9,3.7c-0.2,0.2-0.3,0.1-0.3,0c-0.2-1.3-0.4-2.8,0-4.4
		c0.4-1.9,0.9-3.8,1.3-5.7c0-0.1-0.7-1.5-0.1-3.1c0.8-2.1,3.3-2,3.5-0.1c0.1,1-0.7,3-0.9,4.1c-0.2,1.1,0.4,1.8,1.4,1.9
		c0.9,0.1,2.4-0.5,3.1-2c0.7-1.4,0.9-3.5,0.4-5c-0.7-1.8-2.5-2.9-4.3-2.9c-2.2,0-4.4,1-5.2,3.5c-0.4,1.4-0.1,3.2,0.6,3.8
		c0.2,0.2,0.3,0.2,0.2,0.6c0,0.2-0.3,1.4-0.5,1.5c-0.4,0.2-1.4-0.8-1.7-1.2c-1.1-1.6-1.2-4-0.7-5.8C8.5,11.6,9.9,10.1,12.1,9.3
		L12.1,9.3z"/>
</g>
</svg>
