<?xml version="1.0" encoding="UTF-8"?>
<svg width="138px" height="114px" viewBox="0 0 138 114" version="1.1" xmlns="http://www.w3.org/2000/svg" xmlns:xlink="http://www.w3.org/1999/xlink">
    <!-- Generator: Sketch 53.2 (72643) - https://sketchapp.com -->
    <title>getair_logo</title>
    <desc>Created with Sketch.</desc>
    <defs>
        <path d="M39.2874543,1.01053404 L0.239957045,32.37408 L0.106079546,38.4592168 C3.45621218,39.003275 9.17236601,40.1519514 13.7804359,41.0181234 C14.5338563,41.26822 15.5205239,41.3926135 14.3274485,43.3989508 C12.3135347,50.4658147 10.0555102,59.4958055 7.33706206,66.0729516 C6.87823608,71.6781911 5.39472002,72.5983761 4.05019373,74.1549324 C6.32643073,75.5157326 6.9341515,79.6423254 7.46167358,83.9047691 C13.1682419,84.0897227 12.7174038,86.4551646 12.9126285,88.007138 L13.122551,94.2268162 C27.9394991,84.9333075 34.881958,71.6984869 41.003259,58.0534948 C41.5598571,56.5411309 42.4851775,56.3522491 43.6581233,57.0478711 L55.3668129,63.9016291 C56.4611576,64.3658136 56.3576342,63.8076793 56.248679,63.2449621 L41.1441659,1.18239357 C40.878328,0.532273512 40.6089754,0.305746283 40.3377058,0.305746283 C39.9897521,0.305746283 39.6386032,0.678926979 39.2874543,1.01053404" id="path-1"></path>
        <linearGradient x1="55.1607037%" y1="80.0231958%" x2="55.1607037%" y2="30.9592543%" id="linearGradient-3">
            <stop stop-color="#5BB947" offset="0%"></stop>
            <stop stop-color="#F3EA1A" offset="100%"></stop>
        </linearGradient>
    </defs>
    <g id="Page-1" stroke="none" stroke-width="1" fill="none" fill-rule="evenodd">
        <g id="socks-that-grip-hero-concept-1c" transform="translate(-663.000000, -1600.000000)">
            <g id="getair_logo" transform="translate(664.000000, 1591.000000)">
                <polygon id="Container" points="0 0 136 0 136 138 0 138"></polygon>
                <g id="Group-16" transform="translate(0.000000, 9.537030)" fill-rule="nonzero">
                    <g id="Group-3" fill="#000000" stroke="#FFFFFF">
                        <path d="M66.3050232,0.244464644 C52.8759033,0.355220129 38.7178235,5.36843074 26.8195837,18.215425 C23.2138237,18.7348522 21.5888637,20.0581394 21.7472637,21.7490065 C21.5184637,19.3072494 19.9191038,19.3589352 14.9207038,21.416098 C5.34534393,20.3037277 0.712703991,30.5683535 0.236543997,40.0445286 C0.567103993,48.2054422 2.82630396,54.3124034 9.87046388,55.2973246 L3.69862395,78.1919281 C-0.82169599,78.1257958 0.154303998,81.9425262 0.00262399997,84.0594006 C-0.0645759992,85.3913557 1.21734398,86.6841451 2.81766396,87.3355157 L10.8186239,88.9743759 C11.7699839,88.9872171 12.5203838,88.5509368 13.2272638,88.0234839 C13.4973438,88.9801544 14.9805438,89.8016712 15.8083838,90.0623479 L25.3600637,92.1679862 C36.0938235,105.582883 50.8215034,112.001244 67.8480632,112.019864 C84.0647029,112.549564 116.088063,102.568408 122.641982,65.4155605 L130.733182,69.9912067 C134.687102,71.1918604 136.340542,67.8990516 135.805502,65.2422041 L120.497022,3.36969552 C119.110463,0.161638803 116.293823,0.354257038 114.385343,1.30161773 L101.394623,11.6532427 C92.4259828,4.91770407 79.733183,0.132425037 66.3050232,0.244464644" id="Fill-1"></path>
                    </g>
                    <path d="M20.3479353,20.685285 L20.4749753,33.0497699 L16.4128954,33.9570017 C15.9271355,30.6796026 14.9252155,26.826275 12.9520956,26.9383146 C11.9392956,27.0930513 10.2519356,27.6853523 9.90569565,33.0497699 C9.75753565,35.3486684 10.0432956,42.2643047 10.0432956,42.2643047 C10.2221756,45.0781359 10.6538556,47.5038414 12.7671356,47.3587357 C13.4375355,47.4319306 14.2084155,47.1173208 14.4160955,45.7269383 C14.5693755,44.6993201 14.4746555,41.570558 14.4746555,41.570558 C14.4487355,40.9381282 14.2279355,40.6678206 13.8749755,40.6443854 C13.3933755,40.6045776 13.0048956,40.5628437 12.8000956,40.8010482 C12.7709756,40.8347564 12.6282556,40.8180628 12.6282556,40.7737607 L12.6282556,36.6623247 L24.6288952,34.3005042 L24.7319352,38.8379475 C23.3479352,39.0796834 21.4029753,38.579518 21.4442553,40.5984781 L21.4442553,51.0162347 L16.7821754,50.9700063 L16.2752955,49.5802659 C14.7159355,50.4791509 13.1914555,51.4409579 11.0900156,51.3854197 C3.13417585,50.3237722 2.99785585,42.5452063 2.93545586,38.3753427 C3.23049585,33.4802716 4.9584958,24.0715134 13.1821755,22.492686 C13.9360955,22.4901178 14.5136955,22.2592969 16.0906555,23.3267229 L16.5517754,21.8451678 L20.3479353,20.685285 Z" id="Fill-4" fill="#5BB947"></path>
                    <path d="M52.0209598,12.9963823 L51.8667198,26.7955527 L47.0945597,27.46458 C46.2689597,20.5839356 44.1239997,20.4786377 41.9105596,20.7194104 L36.0081595,22.0587492 L36.0081595,30.6572273 C38.2718396,30.706987 40.0135996,29.6199781 40.0110396,24.7355007 L43.5015996,24.0664733 L43.2443196,39.8220029 L39.7550396,40.3883005 C40.0395196,35.9073583 38.8196796,34.140086 35.9563195,35.3420238 L35.8539195,45.125425 C48.4305597,45.9559306 46.4580797,38.9006457 46.9403197,34.8784559 L51.8667198,34.2614355 L51.5588798,49.3986605 L23.3819193,50.5832627 L23.3819193,46.0005538 C25.3073594,46.0198156 27.3195194,46.1010363 27.0267194,44.5071204 L26.9748794,25.6629575 C27.0689594,24.0041934 25.3803194,24.3178401 23.2798393,24.992967 L23.3819193,20.5129879 L52.0209598,12.9963823 Z" id="Fill-6" fill="#5BB947"></path>
                    <path d="M84.9160013,7.45010104 L84.7982413,23.9404688 L80.0766412,23.9995383 C80.0305612,13.2016814 76.8142411,15.5025062 74.2328011,15.1766603 L73.7611211,41.8809307 C73.9057611,43.5775763 74.7361611,43.341619 75.4136011,43.5384106 L78.6004812,43.7165824 L78.4241612,49.8151966 C71.284321,49.2238587 64.9796809,49.1911136 58.7704008,49.2228956 L58.9467208,43.5384106 L62.0750409,43.4202714 C63.1912009,43.4074302 63.6296009,42.7480338 63.7272009,41.7627915 L64.1998409,16.6572524 C63.8014409,17.1660856 58.6030408,15.8527503 57.9435208,25.9530082 L53.3992007,26.6634485 L53.6356807,12.5718198 L84.9160013,7.45010104 Z" id="Fill-8" fill="#5BB947"></path>
                    <path d="M13.6856641,63.4972761 L15.3272642,72.5288241 L12.1426241,72.2797045 C12.8613441,69.2501407 13.2095041,66.4067745 13.6856641,63.4972761 M17.9618234,55.6593192 L11.9477437,55.9614087 C10.3375037,63.4629258 9.00982378,70.9621957 6.52854387,78.4630707 C5.97334389,79.5462273 5.66966391,80.9561927 4.23958396,80.9102854 L2.54614403,80.9102854 L2.64502402,84.7530191 C6.06038389,85.3299107 9.47318376,85.9915544 12.8885436,86.7019946 L12.7448636,82.2611812 L11.3983037,82.05829 C10.6927037,81.8082074 10.2821437,81.3953623 10.5023037,80.6152584 L11.3525437,76.7725247 L16.4706235,77.3153871 L17.3218235,81.8608564 C17.7231034,82.8451355 17.3947835,83.1706603 16.4706235,82.955891 L14.8831035,82.6624692 L14.8831035,87.1466217 C19.7730234,88.1437421 24.8146232,89.3010566 30.101983,90.6956126 L29.755103,85.5539899 L27.964063,85.2519003 C26.5631031,85.0396993 26.4210231,84.1087111 25.8719031,83.4088649 C22.8751032,74.5240279 20.4466233,65.05941 17.9618234,55.6593192" id="Fill-10" fill="#F3EA1A"></path>
                    <path d="M50.1898866,96.1098216 C44.2673267,94.3518592 38.3434868,92.7958249 32.421247,91.3482989 L32.073087,86.0057111 L34.5038069,86.702026 C35.8551669,87.0098942 35.9047669,86.215665 35.8942069,85.3087541 L34.4462069,61.9656714 C34.2993269,60.0105963 33.9018869,60.1916574 32.825727,59.9919765 L30.568767,59.9919765 L30.163327,54.8821358 L47.9332466,54.2439274 L48.1582066,59.9467112 C48.1617266,60.0321053 48.0897266,60.1008058 48.0049266,60.0934221 L46.1959666,59.9341911 C45.4196467,60.0555405 44.2714867,60.2279339 44.3438067,61.8504215 C44.7332467,70.5837322 45.1530867,79.1722582 45.9642867,88.0375125 C46.4820466,89.5582334 47.2180466,89.3245233 47.8743666,89.7222799 L49.8430066,90.0124914 L50.1898866,96.1098216 Z" id="Fill-12" fill="#F3EA1A"></path>
                    <path d="M63.2943649,60.9912764 L67.4412451,61.3829334 C69.1686051,62.075717 71.0620452,62.3232314 71.2646052,67.2654939 C70.9775652,69.9284409 71.2220452,73.1612167 68.4278051,73.1397077 L63.8882849,72.8084043 L63.2943649,60.9912764 Z M49.4678055,54.2473913 L49.8665255,60.1299522 L51.7145254,60.1553136 C52.9138854,60.3511421 53.5570854,60.5180779 53.6143653,61.7155212 L55.1951653,89.5854535 C54.9020453,90.3263917 55.0505253,91.5087466 53.6143653,91.1039273 L51.4470054,90.3783986 L51.6434854,96.3293389 L69.5487648,100.617984 L69.0217249,93.9508248 C65.698525,93.7338082 65.225565,92.4041004 65.010525,90.9751941 L64.348125,79.0826233 L67.7046049,79.6110393 C69.4649248,80.0643342 71.1903648,80.5715622 71.0620448,83.7796189 L71.6562848,93.6866168 C72.8086047,98.8282395 74.7266847,103.169854 80.7410845,103.260706 C83.3471644,103.392971 85.5026843,101.958286 86.5366043,96.6539007 L86.2732443,88.9966838 L83.3753244,88.9966838 L83.3071644,93.4224088 C83.4482844,96.4978799 81.3702045,95.5094273 81.2681245,93.4824414 C81.2537245,89.4817607 81.1266845,85.7205687 80.4175645,83.1154071 C79.7695645,77.9747474 77.2870046,78.3381538 75.5404447,76.5082806 C77.7714846,74.3243109 81.1644445,75.2045762 80.8092445,66.2083416 C80.1590045,56.5385852 75.6780447,55.6018185 71.2646048,54.5115993 L49.4678055,54.2473913 Z" id="Fill-14" fill="#F3EA1A"></path>
                </g>
                <g id="Group-19" transform="translate(76.752473, 12.256040)">
                    <g id="Fill-17-Clipped">
                        <mask id="mask-2" fill="white">
                            <use xlink:href="#path-1"></use>
                        </mask>
                        <g id="path-1"></g>
                        <path d="M39.2874543,1.01053404 L0.239957045,32.37408 L0.106079546,38.4592168 C3.45621218,39.003275 9.17236601,40.1519514 13.7804359,41.0181234 C14.5338563,41.26822 15.5205239,41.3926135 14.3274485,43.3989508 C12.3135347,50.4658147 10.0555102,59.4958055 7.33706206,66.0729516 C6.87823608,71.6781911 5.39472002,72.5983761 4.05019373,74.1549324 C6.32643073,75.5157326 6.9341515,79.6423254 7.46167358,83.9047691 C13.1682419,84.0897227 12.7174038,86.4551646 12.9126285,88.007138 L13.122551,94.2268162 C27.9394991,84.9333075 34.881958,71.6984869 41.003259,58.0534948 C41.5598571,56.5411309 42.4851775,56.3522491 43.6581233,57.0478711 L55.3668129,63.9016291 C56.4611576,64.3658136 56.3576342,63.8076793 56.248679,63.2449621 L41.1441659,1.18239357 C40.878328,0.532273512 40.6089754,0.305746283 40.3377058,0.305746283 C39.9897521,0.305746283 39.6386032,0.678926979 39.2874543,1.01053404" id="Fill-17" fill="url(#linearGradient-3)" fill-rule="nonzero" mask="url(#mask-2)"></path>
                    </g>
                </g>
            </g>
        </g>
    </g>
</svg>