<?xml version="1.0" encoding="utf-8"?>
<!-- Generator: Adobe Illustrator 25.2.1, SVG Export Plug-In . SVG Version: 6.00 Build 0)  -->
<svg version="1.1" id="Layer_1" xmlns="http://www.w3.org/2000/svg" xmlns:xlink="http://www.w3.org/1999/xlink" x="0px" y="0px"
	 viewBox="0 0 370.4 143.3" style="enable-background:new 0 0 370.4 143.3;" xml:space="preserve">
<style type="text/css">
	.st0{fill:url(#SVGID_1_);}
	.st1{fill:url(#SVGID_2_);}
	.st2{fill:url(#SVGID_3_);}
	.st3{fill:url(#SVGID_4_);}
	.st4{fill:url(#SVGID_5_);}
	.st5{fill:url(#SVGID_6_);}
	.st6{fill:url(#SVGID_7_);}
	.st7{font-family:'Montserrat-Regular';}
	.st8{font-size:29px;}
</style>
<g>
	
		<linearGradient id="SVGID_1_" gradientUnits="userSpaceOnUse" x1="21.6244" y1="66.4829" x2="64.5283" y2="66.4829" gradientTransform="matrix(0.9005 0.4348 -0.4348 0.9005 21.9411 9.6735)">
		<stop  offset="0" style="stop-color:#DBDACE"/>
		<stop  offset="0.1171" style="stop-color:#CFD4CA"/>
		<stop  offset="0.3152" style="stop-color:#B0C3BE"/>
		<stop  offset="0.5701" style="stop-color:#81A9AC"/>
		<stop  offset="0.84" style="stop-color:#4C8C98"/>
		<stop  offset="1" style="stop-color:#4C8C98"/>
	</linearGradient>
	<path class="st0" d="M63.5,71.6c-1.9,3-14.5,0.3-24.7,4.5c0,0-20.1,13.3-23.9,17.3c5.9-4.8,16.4-2.9,17.6,0.3
		c2.9,7.7-16.9,16.1-32.5,11.1C26.7,117.7,50.4,103.1,63.5,71.6z"/>
	
		<linearGradient id="SVGID_2_" gradientUnits="userSpaceOnUse" x1="16.2058" y1="65.2216" x2="59.1096" y2="65.2216" gradientTransform="matrix(7.173164e-02 0.9974 -0.9974 7.173164e-02 95.6353 10.2108)">
		<stop  offset="0" style="stop-color:#DBDACE"/>
		<stop  offset="0.1171" style="stop-color:#CFD4CA"/>
		<stop  offset="0.3152" style="stop-color:#B0C3BE"/>
		<stop  offset="0.5701" style="stop-color:#81A9AC"/>
		<stop  offset="0.84" style="stop-color:#4C8C98"/>
		<stop  offset="1" style="stop-color:#4C8C98"/>
	</linearGradient>
	<path class="st1" d="M63.5,71.6c-3.6-0.1-7.5-12.4-16.2-19.1c0,0-21.6-10.8-26.9-12.1c7.1,2.7,10.7,12.8,8.5,15.4
		C23.7,62.1,6.5,49.1,3,33.1C5.2,62.6,29.7,76,63.5,71.6z"/>
	
		<linearGradient id="SVGID_3_" gradientUnits="userSpaceOnUse" x1="12.4186" y1="69.2642" x2="55.3225" y2="69.2642" gradientTransform="matrix(-0.8262 0.5633 -0.5633 -0.8262 131.8912 74.005)">
		<stop  offset="0" style="stop-color:#DBDACE"/>
		<stop  offset="0.1171" style="stop-color:#CFD4CA"/>
		<stop  offset="0.3152" style="stop-color:#B0C3BE"/>
		<stop  offset="0.5701" style="stop-color:#81A9AC"/>
		<stop  offset="0.84" style="stop-color:#4C8C98"/>
		<stop  offset="1" style="stop-color:#4C8C98"/>
	</linearGradient>
	<path class="st2" d="M63.5,71.6c-1.7-3.2,7-12.7,8.4-23.7c0,0-1.5-24.1-3-29.3c1.2,7.5-5.7,15.7-9,15.1C51.7,32.4,54.3,11,66.4,0
		C42,16.7,42.7,44.6,63.5,71.6z"/>
	
		<linearGradient id="SVGID_4_" gradientUnits="userSpaceOnUse" x1="13.9967" y1="74.5573" x2="56.9005" y2="74.5573" gradientTransform="matrix(-0.9037 -0.4282 0.4282 -0.9037 95.1738 137.2894)">
		<stop  offset="0" style="stop-color:#DBDACE"/>
		<stop  offset="0.1171" style="stop-color:#CFD4CA"/>
		<stop  offset="0.3152" style="stop-color:#B0C3BE"/>
		<stop  offset="0.5701" style="stop-color:#81A9AC"/>
		<stop  offset="0.84" style="stop-color:#4C8C98"/>
		<stop  offset="1" style="stop-color:#4C8C98"/>
	</linearGradient>
	<path class="st3" d="M63.5,71.6c1.9-3.1,14.5-0.4,24.7-4.7c0,0,20-13.5,23.8-17.5c-5.8,4.8-16.4,3-17.6-0.1
		c-3-7.7,16.8-16.2,32.4-11.4C100,25.2,76.3,40,63.5,71.6z"/>
	
		<linearGradient id="SVGID_5_" gradientUnits="userSpaceOnUse" x1="19.4028" y1="75.8591" x2="62.3067" y2="75.8591" gradientTransform="matrix(-7.960657e-02 -0.9968 0.9968 -7.960657e-02 21.5145 137.3128)">
		<stop  offset="0" style="stop-color:#DBDACE"/>
		<stop  offset="0.1171" style="stop-color:#CFD4CA"/>
		<stop  offset="0.3152" style="stop-color:#B0C3BE"/>
		<stop  offset="0.5701" style="stop-color:#81A9AC"/>
		<stop  offset="0.84" style="stop-color:#4C8C98"/>
		<stop  offset="1" style="stop-color:#4C8C98"/>
	</linearGradient>
	<path class="st4" d="M63.5,71.6c3.6,0.1,7.6,12.4,16.4,19c0,0,21.7,10.6,27,11.9c-7.1-2.7-10.8-12.7-8.7-15.3
		c5.2-6.4,22.5,6.5,26,22.4C121.9,80.1,97.3,67,63.5,71.6z"/>
	
		<linearGradient id="SVGID_6_" gradientUnits="userSpaceOnUse" x1="23.2188" y1="71.859" x2="66.1227" y2="71.859" gradientTransform="matrix(0.8205 -0.5717 0.5717 0.8205 -15.2434 73.9759)">
		<stop  offset="0" style="stop-color:#DBDACE"/>
		<stop  offset="0.1171" style="stop-color:#CFD4CA"/>
		<stop  offset="0.3152" style="stop-color:#B0C3BE"/>
		<stop  offset="0.5701" style="stop-color:#81A9AC"/>
		<stop  offset="0.84" style="stop-color:#4C8C98"/>
		<stop  offset="1" style="stop-color:#4C8C98"/>
	</linearGradient>
	<path class="st5" d="M63.5,71.6c1.7,3.1-6.9,12.8-8.1,23.8c0,0,1.8,24.1,3.3,29.3c-1.3-7.5,5.6-15.7,8.9-15.2
		c8.1,1.2,5.7,22.7-6.2,33.8C85.6,126.3,84.6,98.5,63.5,71.6z"/>
</g>
<text transform="matrix(0.9 0 0 1 124.2672 65.0183)"><tspan x="0" y="0" class="st7 st8">Kaysville Chamber</tspan><tspan x="0" y="27" class="st7 st8">of Commerce</tspan></text>
</svg>
