<?xml version="1.0" encoding="utf-8"?>
<!-- Generator: Adobe Illustrator 25.1.0, SVG Export Plug-In . SVG Version: 6.00 Build 0)  -->
<svg version="1.1" id="Layer_1" xmlns="http://www.w3.org/2000/svg" xmlns:xlink="http://www.w3.org/1999/xlink" x="0px" y="0px"
	 viewBox="0 0 253.1 216.2" style="enable-background:new 0 0 253.1 216.2;" xml:space="preserve">
<style type="text/css">
	.st0{fill:#ED553B;}
	.st1{fill:#F6D55C;}
	.st2{fill:#3CAEA3;}
	.st3{fill:#173F7D;}
</style>
<g id="Layer_2_1_">
</g>
<g id="Layer_1_1_">
	<g>
		<path d="M242.3,118.5c-0.5-2.1-82.3-41.3-83.8-42.2C99.7,110.8,46.6,57.9,46.6,57.9c2.7,4.6,62.8,42,119.5,2.7
			c-17.9-11.5-62.2-23-91.5-39.8C69,17.6,63.5,9.7,50.7,6.3c-18.5-4.9-34,13.1-34,13.1s-7.4,3.2-12.5,5.4c-3.6,1.6,8.5,4.2,12.7,9
			s-0.1,16.6,0,22.2c0.6,45.7,73.6,56.7,75.7,59.1c2.1,2.4-5.3,10.8-5.3,10.8s3.2,0.5,5.3,0c2.1-0.5,7.4-10.8,7.4-10.8
			c27,1.4,67.9-20.4,77.8-17.8c8.8,2.3,60.3,26,62.4,26C242.3,123.3,242.9,120.6,242.3,118.5z M30.1,24.6c-1.7,0-3-1.3-3-3
			s1.3-3,3-3c1.7,0,3,1.3,3,3C33,23.2,31.7,24.6,30.1,24.6z"/>
		<path class="st0" d="M109,36.7c-18.4,16.7-57.8,25-57.8,25c5.2,3.4,15.7,8.9,28.7,12.5c15.9-1.7,32.1-7.8,45.9-21.6
			c0.7,0.3,16,2,33.1,4.1C146.4,50.4,127.6,44.1,109,36.7z"/>
		<path class="st1" d="M122.9,42C98.7,60.5,51.7,61.9,51.7,61.9c1,0.9,24.7,13.2,45.9,15.7c8.1-2.1,16.3-5.8,24.5-11.7
			c0.5,0.3,10.2,2.7,23,5.9c7-2.7,14.1-6.4,21.1-11.3C156.9,54.7,140.6,48.7,122.9,42z"/>
		<path class="st2" d="M137,47.4c-30.5,21.6-84.9,14.8-84.9,14.8C57.9,66,76,75,96.9,77.6c14.5-0.4,29.8-4.7,44.8-16.1
			c0.4,0.2,6.6,2,15.5,4.7c3-1.7,6-3.5,9-5.5C159.4,56.3,149,52,137,47.4z"/>
		<path class="st3" d="M151.9,53.4L151.9,53.4c-37.4,25.8-99.3,9.1-99.3,9.1c13.8,8.3,40.7,20,74.4,14.3c6.7-1.1,13.6-3.1,20.5-6
			c6.2-2.6,12.4-5.9,18.6-10.2C162.4,58.2,157.6,55.8,151.9,53.4z"/>
	</g>
	<g>
		<path d="M7.7,133.3c0.3,0,0.6-0.1,1.1-0.1c0.5-0.1,1-0.1,1.6-0.2C11,133,11.5,133,12,133s1-0.1,1.5-0.1c3,0,5.4,0.6,7.1,1.8
			c1.7,1.2,2.5,3,2.5,5.5c0,0.8-0.1,1.6-0.4,2.2c-0.3,0.7-0.6,1.2-1,1.8c-0.4,0.5-0.9,1-1.4,1.3c-0.6,0.4-1.1,0.6-1.8,0.8
			c0.8,0.1,1.6,0.3,2.3,0.6c0.8,0.3,1.4,0.8,2,1.3c0.6,0.6,1,1.3,1.4,2.2c0.4,0.9,0.5,1.9,0.5,3.2c0,1.4-0.3,2.6-0.8,3.6
			c-0.6,1-1.3,1.9-2.3,2.5c-1,0.7-2.2,1.2-3.6,1.5c-1.3,0.3-2.8,0.5-4.4,0.5c-0.4,0-0.9,0-1.4-0.1c-0.5-0.1-1-0.1-1.6-0.1
			c-0.5-0.1-1-0.1-1.6-0.2c-0.5-0.1-0.9-0.1-1.3-0.2v-28H7.7z M14.1,145.3c2.1,0,3.7-0.5,4.6-1.4c1-0.9,1.4-2.2,1.4-3.7
			c0-1.4-0.5-2.6-1.6-3.5s-2.6-1.4-4.9-1.4c-0.7,0-1.3,0.1-1.9,0.1c-0.6,0.1-1.1,0.1-1.4,0.2v9.8H14.1z M10.4,159.2
			c0.4,0.1,0.8,0.1,1.4,0.2c0.6,0.1,1.2,0.1,1.9,0.1c1,0,2-0.1,3-0.3c1-0.2,1.9-0.5,2.6-0.9c0.8-0.5,1.3-1,1.8-1.8
			c0.5-0.7,0.7-1.7,0.7-2.7c0-1.1-0.2-2-0.6-2.7c-0.4-0.7-0.9-1.3-1.6-1.8c-0.7-0.5-1.4-0.8-2.4-1c-0.9-0.2-1.9-0.3-2.9-0.3h-4
			L10.4,159.2L10.4,159.2z"/>
		<path d="M35.8,133.3c0.2,0,0.4-0.1,0.7-0.1c0.3,0,0.5,0,0.7,0c0.3,0,0.5,0,0.7,0s0.5,0.1,0.6,0.1v28.1c-0.2,0-0.4,0.1-0.6,0.1
			c-0.3,0-0.5,0-0.7,0s-0.5,0-0.8,0s-0.5-0.1-0.6-0.1C35.8,161.4,35.8,133.3,35.8,133.3z"/>
		<path d="M51.6,133.2c0.6-0.1,1.1-0.1,1.5-0.2s0.8-0.1,1.2-0.1c0.4-0.1,0.8-0.1,1.3-0.1c0.5,0,1,0,1.6,0c1.2,0,2.5,0.2,3.7,0.4
			c1.2,0.3,2.3,0.7,3.3,1.3c1,0.6,1.8,1.5,2.3,2.6c0.6,1.1,0.9,2.4,0.9,4.1c0,1-0.2,1.9-0.6,2.8c-0.4,0.8-0.8,1.6-1.4,2.2
			c-0.6,0.7-1.2,1.2-2,1.7c-0.8,0.5-1.6,0.9-2.4,1.2l-0.3,0.1l8.9,12.1c-0.3,0.1-0.5,0.1-0.8,0.1s-0.5,0-0.8,0s-0.5,0-0.8,0
			s-0.5-0.1-0.8-0.1l-9.8-13v-0.2l0.9-0.3c0.9-0.3,1.8-0.5,2.6-0.9c0.8-0.4,1.6-0.8,2.2-1.3c0.6-0.5,1.1-1.2,1.6-1.9
			c0.4-0.7,0.6-1.6,0.6-2.6c0-2-0.6-3.6-1.9-4.5c-1.2-1-2.9-1.5-5.1-1.5c-0.6,0-1,0-1.5,0.1c-0.5,0.1-1,0.1-1.7,0.2v26
			c-0.2,0-0.4,0.1-0.7,0.1c-0.3,0-0.5,0-0.7,0c-0.3,0-0.5,0-0.7,0s-0.5-0.1-0.6-0.1C51.6,161.4,51.6,133.2,51.6,133.2z"/>
		<path d="M79.8,133.3c0.4-0.1,0.8-0.1,1.3-0.2s1.1-0.1,1.7-0.2s1.2-0.1,1.8-0.1c0.6,0,1.1-0.1,1.7-0.1c2.4,0,4.5,0.3,6.4,1
			c1.8,0.7,3.3,1.6,4.5,2.8s2.1,2.7,2.6,4.5c0.6,1.8,0.9,3.8,0.9,6c0,9.7-4.8,14.6-14.4,14.6c-0.6,0-1.1,0-1.8-0.1
			c-0.6-0.1-1.2-0.1-1.8-0.1s-1.1-0.1-1.7-0.2c-0.5-0.1-0.9-0.1-1.3-0.2L79.8,133.3L79.8,133.3z M82.5,159.1c0.5,0.1,1,0.1,1.7,0.2
			c0.6,0.1,1.3,0.1,2,0.1c1.8,0,3.4-0.2,4.9-0.6s2.7-1,3.7-2c1-0.9,1.8-2.2,2.3-3.7c0.6-1.6,0.8-3.5,0.8-5.8c0-4-1-7-3.1-8.9
			c-2.1-1.9-4.9-2.8-8.6-2.8c-0.6,0-1.2,0-1.9,0.1c-0.7,0.1-1.2,0.1-1.7,0.2V159.1z"/>
		<path d="M111.2,158.3c0.4,0.1,0.7,0.2,1.1,0.4c0.4,0.2,0.8,0.3,1.3,0.4c0.5,0.1,1,0.2,1.6,0.3c0.6,0.1,1.3,0.1,2.1,0.1
			c1.2,0,2.3-0.2,3.2-0.5s1.7-0.7,2.2-1.2c0.6-0.5,1-1.1,1.3-1.8c0.3-0.7,0.4-1.4,0.4-2.2c0-0.8-0.1-1.4-0.3-2
			c-0.2-0.6-0.5-1.1-1-1.6c-0.5-0.5-1.1-0.9-2-1.3c-0.8-0.4-1.9-0.9-3.2-1.4c-0.9-0.4-1.8-0.7-2.6-1.1c-0.8-0.4-1.6-0.9-2.2-1.4
			c-0.6-0.6-1.1-1.2-1.5-2c-0.4-0.8-0.6-1.8-0.6-2.9c0-2.1,0.8-3.8,2.3-5.1c1.5-1.3,3.7-2,6.7-2c0.6,0,1.1,0.1,1.8,0.1
			c0.6,0.1,1.1,0.1,1.7,0.2c0.5,0.1,1,0.2,1.4,0.3c0.4,0.1,0.8,0.2,1,0.3c-0.1,0.4-0.1,0.8-0.2,1.2c-0.1,0.4-0.2,0.8-0.3,1.1
			c-0.6-0.2-1.4-0.4-2.4-0.6c-1-0.2-2-0.3-2.9-0.3c-2.2,0-3.7,0.5-4.7,1.3s-1.4,2-1.4,3.4c0,0.7,0.2,1.3,0.4,1.8
			c0.3,0.5,0.7,1,1.2,1.3c0.5,0.4,1.1,0.7,1.8,1.1c0.7,0.3,1.4,0.6,2.3,0.9c1.1,0.5,2.1,0.9,3,1.3c0.9,0.5,1.8,1,2.4,1.7
			s1.2,1.3,1.6,2.2c0.4,0.8,0.6,1.9,0.6,3c0,1.3-0.3,2.5-0.7,3.6c-0.5,1-1.2,2-2.1,2.6c-0.9,0.7-2,1.2-3.3,1.7
			c-1.3,0.4-2.7,0.6-4.3,0.6c-1.6,0-2.8-0.1-3.8-0.3c-1-0.2-2-0.5-2.8-0.8c0.1-0.4,0.2-0.8,0.3-1.3
			C110.9,159.1,111,158.7,111.2,158.3z"/>
		<path d="M163.7,161.9c-2,0-3.7-0.4-5.1-1.1s-2.6-1.7-3.6-3c-0.9-1.3-1.7-2.8-2.2-4.6c-0.5-1.8-0.7-3.7-0.7-5.8s0.3-4,0.7-5.8
			c0.5-1.8,1.2-3.3,2.2-4.6c0.9-1.3,2.2-2.3,3.6-3c1.4-0.7,3.2-1.1,5.1-1.1c2,0,3.7,0.4,5.1,1.1c1.4,0.7,2.6,1.7,3.6,3
			c0.9,1.3,1.7,2.8,2.2,4.6c0.5,1.8,0.7,3.7,0.7,5.8s-0.3,4-0.7,5.8c-0.5,1.8-1.2,3.3-2.2,4.6s-2.2,2.3-3.6,3
			S165.7,161.9,163.7,161.9z M163.7,159.4c1.5,0,2.8-0.3,3.9-0.9s2-1.4,2.7-2.5c0.7-1.1,1.3-2.3,1.6-3.8c0.4-1.5,0.5-3.1,0.5-4.9
			s-0.2-3.4-0.5-4.9c-0.4-1.5-0.9-2.7-1.6-3.8c-0.7-1-1.7-1.9-2.7-2.5c-1.1-0.6-2.4-0.9-3.9-0.9c-1.5,0-2.8,0.3-3.9,0.9
			c-1.1,0.6-2,1.4-2.7,2.5c-0.7,1-1.2,2.3-1.6,3.8s-0.5,3.1-0.5,4.9s0.2,3.4,0.5,4.9c0.4,1.5,0.9,2.7,1.6,3.8s1.6,1.9,2.7,2.5
			C160.9,159.1,162.2,159.4,163.7,159.4z"/>
		<path d="M187,133.3h13.8c0,0.2,0.1,0.4,0.1,0.6c0,0.2,0,0.4,0,0.6c0,0.2,0,0.4,0,0.6c0,0.3-0.1,0.5-0.1,0.6h-11.1v9.5h9.6
			c0,0.2,0.1,0.4,0.1,0.6s0,0.4,0,0.6c0,0.2,0,0.4,0,0.6c0,0.3-0.1,0.5-0.1,0.6h-9.6v13.6c-0.2,0-0.4,0.1-0.6,0.1
			c-0.3,0-0.5,0-0.7,0s-0.5,0-0.8,0s-0.5-0.1-0.6-0.1L187,133.3L187,133.3z"/>
		<path d="M233,133.3c0.2,0,0.4-0.1,0.7-0.1s0.6,0,0.9,0c0.3,0,0.6,0,0.9,0s0.5,0.1,0.7,0.1l9.4,28.1c-0.2,0-0.4,0.1-0.7,0.1
			c-0.3,0-0.6,0-0.8,0s-0.5,0-0.7,0s-0.5-0.1-0.7-0.1l-2.3-7.1h-11.5l-2.2,7.1c-0.2,0-0.5,0.1-0.7,0.1s-0.5,0-0.8,0s-0.5,0-0.8,0
			s-0.5-0.1-0.6-0.1L233,133.3z M239.6,151.8l-5-15.6l-5,15.6H239.6z"/>
		<path d="M7.8,172.3c1.3-0.2,2.8-0.3,4.5-0.3c0.7,0,1.3,0,2,0.1s1.3,0.1,2,0.3l5.7,29.8l6.8-29.8c0.7-0.1,1.4-0.2,2-0.3
			c0.6-0.1,1.3-0.1,1.9-0.1c1.1,0,2.3,0.1,3.6,0.3l7.1,30.6l5.7-30.6c1.1-0.2,2.3-0.3,3.5-0.3c0.7,0,1.4,0.1,2.2,0.1
			c0.7,0.1,1.4,0.2,2,0.2l-9.5,39.6c-1.3,0.2-2.7,0.3-4.1,0.3c-1.4,0-2.9-0.1-4.5-0.3l-6.4-26.4l-6.8,26.4c-0.9,0.1-1.7,0.2-2.3,0.2
			c-0.7,0.1-1.4,0.1-2.2,0.1c-1.1,0-2.4-0.1-3.7-0.3L7.8,172.3z"/>
		<path d="M61.5,172.3H84c0.2,1.1,0.3,2.2,0.3,3.4c0,1.2-0.1,2.4-0.3,3.5H69.5v8.6H81c0.2,1.2,0.3,2.3,0.3,3.4
			c0,1.2-0.1,2.3-0.3,3.5H69.5V205h14.8c0.2,1.1,0.3,2.2,0.3,3.4c0,1.2-0.1,2.4-0.3,3.5H61.5L61.5,172.3L61.5,172.3z"/>
		<path d="M99.9,172.3c0.8-0.1,1.5-0.2,2.2-0.3c0.7-0.1,1.4-0.1,2.3-0.1c0.7,0,1.4,0.1,2.2,0.1c0.7,0.1,1.4,0.2,2.3,0.3l12.4,39.6
			c-1.5,0.2-3,0.3-4.4,0.3c-1.4,0-2.7-0.1-4.1-0.3l-2.2-7.9H97.6l-2.3,7.9c-1.3,0.2-2.6,0.3-3.8,0.3c-1.3,0-2.7-0.1-4-0.3
			L99.9,172.3z M108.7,197.3l-4.5-16.6l-4.8,16.6H108.7z"/>
		<path d="M129.6,179.1h-9.9c-0.2-1.1-0.3-2.3-0.3-3.5c0-1.1,0.1-2.3,0.3-3.4h27.8c0.2,1.1,0.3,2.2,0.3,3.4c0,1.2-0.1,2.4-0.3,3.5
			h-9.9v32.8c-0.7,0.1-1.3,0.2-2,0.2c-0.7,0.1-1.3,0.1-1.9,0.1c-0.6,0-1.3,0-2-0.1s-1.4-0.1-2.2-0.2V179.1z"/>
		<path d="M153.1,172.3c1.3-0.2,2.7-0.3,4-0.3s2.7,0.1,4.1,0.3v15.6h13.3v-15.6c1.3-0.2,2.7-0.3,4-0.3s2.7,0.1,4.1,0.3v39.6
			c-1.4,0.2-2.7,0.3-4,0.3c-1.3,0-2.7-0.1-4.1-0.3v-17.1h-13.3v17.1c-1.4,0.2-2.7,0.3-4,0.3c-1.3,0-2.7-0.1-4.1-0.3V172.3z"/>
		<path d="M190.3,172.3h22.5c0.2,1.1,0.3,2.2,0.3,3.4c0,1.2-0.1,2.4-0.3,3.5h-14.4v8.6h11.5c0.2,1.2,0.3,2.3,0.3,3.4
			c0,1.2-0.1,2.3-0.3,3.5h-11.5V205h14.8c0.2,1.1,0.3,2.2,0.3,3.4c0,1.2-0.1,2.4-0.3,3.5h-22.8L190.3,172.3L190.3,172.3z"/>
		<path d="M220,172.3c1.6-0.2,3.2-0.4,4.5-0.5c1.4-0.1,3-0.2,4.7-0.2c2,0,4,0.2,6,0.6c2,0.4,3.7,1,5.3,2c1.6,0.9,2.8,2.2,3.8,3.8
			s1.4,3.6,1.4,6.1c0,1.4-0.2,2.7-0.6,3.9s-0.8,2.1-1.4,2.9s-1.2,1.6-1.9,2.2c-0.7,0.6-1.3,1.1-1.9,1.4l-0.9,0.6l9.6,16.7
			c-0.7,0.1-1.5,0.2-2.3,0.2s-1.7,0.1-2.5,0.1c-1.4,0-2.8-0.1-4.1-0.3l-10.3-18.4l1.3-0.7c0.5-0.3,1.1-0.6,1.9-1
			c0.7-0.4,1.4-0.9,2.1-1.5c0.7-0.6,1.2-1.3,1.8-2.2c0.5-0.9,0.7-1.9,0.7-3c0-2.3-0.7-4-2-5.1c-1.3-1.1-3-1.6-5.1-1.6
			c-0.8,0-1.6,0.1-2.2,0.2V212c-0.7,0.1-1.3,0.2-2,0.2c-0.6,0.1-1.3,0.1-1.9,0.1s-1.3,0-2-0.1c-0.7-0.1-1.4-0.1-2.2-0.2L220,172.3
			L220,172.3z"/>
	</g>
</g>
</svg>
