<?xml version="1.0" encoding="utf-8"?>
<!-- Generator: Adobe Illustrator 25.1.0, SVG Export Plug-In . SVG Version: 6.00 Build 0)  -->
<svg version="1.1" id="Layer_1" xmlns="http://www.w3.org/2000/svg" xmlns:xlink="http://www.w3.org/1999/xlink" x="0px" y="0px"
	 viewBox="0 0 526 125.2" style="enable-background:new 0 0 526 125.2;" xml:space="preserve">
<style type="text/css">
	.st0{fill:#ED553B;}
	.st1{fill:#F6D55C;}
	.st2{fill:#3CAEA3;}
	.st3{fill:#173F7D;}
</style>
<g id="Layer_2_1_">
</g>
<g id="Layer_1_1_">
	<g>
		<path d="M514.2,110.4c-0.4-1.9-73.5-36.9-74.8-37.7c-52.5,30.8-99.9-16.4-99.9-16.4c2.4,4.1,56.1,37.5,106.7,2.4
			c-16-10.3-55.5-20.5-81.7-35.5c-5-2.9-9.9-9.9-21.3-12.9c-16.5-4.4-30.4,11.7-30.4,11.7s-6.6,2.9-11.2,4.8
			c-3.2,1.4,7.6,3.8,11.3,8s-0.1,14.8,0,19.8c0.5,40.8,65.7,50.6,67.6,52.8c1.9,2.1-4.7,9.6-4.7,9.6s2.9,0.4,4.7,0s6.6-9.6,6.6-9.6
			c24.1,1.3,60.6-18.2,69.5-15.9c7.9,2.1,53.8,23.2,55.7,23.2C514.2,114.7,514.7,112.3,514.2,110.4z M324.7,26.6
			c-1.5,0-2.7-1.2-2.7-2.7c0-1.5,1.2-2.7,2.7-2.7s2.7,1.2,2.7,2.7C327.3,25.3,326.1,26.6,324.7,26.6z"/>
		<path class="st0" d="M395.2,37.4c-16.4,14.9-51.6,22.3-51.6,22.3c4.6,3,14,7.9,25.6,11.2c14.2-1.5,28.7-7,41-19.3
			c0.6,0.3,14.3,1.8,29.6,3.7C428.6,49.6,411.8,44,395.2,37.4z"/>
		<path class="st1" d="M407.6,42.1C386,58.6,344,59.9,344,59.9c0.9,0.8,22.1,11.8,41,14c7.2-1.9,14.6-5.2,21.9-10.4
			c0.4,0.3,9.1,2.4,20.5,5.3c6.3-2.4,12.6-5.7,18.8-10.1C437.9,53.4,423.4,48.1,407.6,42.1z"/>
		<path class="st2" d="M420.2,46.9c-27.2,19.3-75.8,13.2-75.8,13.2c5.2,3.4,21.3,11.4,40,13.8c12.9-0.4,26.6-4.2,40-14.4
			c0.4,0.2,5.9,1.8,13.8,4.2c2.7-1.5,5.4-3.1,8-4.9C440.2,54.9,430.9,51,420.2,46.9z"/>
		<path class="st3" d="M433.5,52.3L433.5,52.3c-33.4,23-88.7,8.1-88.7,8.1c12.3,7.4,36.3,17.9,66.4,12.8c6-1,12.1-2.8,18.3-5.4
			c5.5-2.3,11.1-5.3,16.6-9.1C442.8,56.6,438.6,54.4,433.5,52.3z"/>
	</g>
	<g>
		<path d="M16.6,18.2c0.3,0,0.7-0.1,1.3-0.1c0.6-0.1,1.2-0.1,1.8-0.2c0.7,0,1.3,0,1.8,0s1.2-0.1,1.7-0.1c3.5,0,6.2,0.7,8.2,2.1
			c2,1.4,2.9,3.5,2.9,6.3c0,0.9-0.1,1.8-0.5,2.5c-0.3,0.8-0.7,1.4-1.2,2.1c-0.5,0.6-1,1.2-1.6,1.5c-0.7,0.5-1.3,0.7-2.1,0.9
			c0.9,0.1,1.8,0.3,2.6,0.7c0.9,0.3,1.6,0.9,2.3,1.5c0.7,0.7,1.2,1.5,1.6,2.5c0.5,1,0.6,2.2,0.6,3.7c0,1.6-0.3,3-0.9,4.1
			c-0.7,1.2-1.5,2.2-2.6,2.9c-1.2,0.8-2.5,1.4-4.1,1.7c-1.5,0.3-3.2,0.6-5.1,0.6c-0.5,0-1,0-1.6-0.1c-0.6-0.1-1.2-0.1-1.8-0.1
			c-0.6-0.1-1.2-0.1-1.8-0.2c-0.6-0.1-1-0.1-1.5-0.2V18h0V18.2z M23.9,32c2.4,0,4.3-0.6,5.3-1.6c1.2-1,1.6-2.5,1.6-4.3
			c0-1.6-0.6-3-1.8-4c-1.3-1-3-1.6-5.6-1.6c-0.8,0-1.5,0.1-2.2,0.1c-0.7,0.1-1.3,0.1-1.6,0.2v11.3h4.4V32z M19.7,48.1
			c0.5,0.1,0.9,0.1,1.6,0.2c0.7,0.1,1.4,0.1,2.2,0.1c1.2,0,2.3-0.1,3.5-0.3c1.2-0.2,2.2-0.6,3-1c0.9-0.6,1.5-1.2,2.1-2.1
			c0.6-0.8,0.8-2,0.8-3.1c0-1.3-0.2-2.3-0.7-3.1s-1-1.5-1.8-2.1c-0.8-0.6-1.6-0.9-2.8-1.2c-1-0.2-2.2-0.3-3.3-0.3h-4.6L19.7,48.1
			L19.7,48.1z"/>
		<path d="M48.9,18.2c0.2,0,0.5-0.1,0.8-0.1s0.6,0,0.8,0c0.3,0,0.6,0,0.8,0c0.2,0,0.6,0.1,0.7,0.1v32.4c-0.2,0-0.5,0.1-0.7,0.1
			c-0.3,0-0.6,0-0.8,0s-0.6,0-0.9,0c-0.3,0-0.6-0.1-0.7-0.1C48.9,50.6,48.9,18.2,48.9,18.2z"/>
		<path d="M67.1,18.1c0.7-0.1,1.3-0.1,1.7-0.2s0.9-0.1,1.4-0.1c0.5-0.1,0.9-0.1,1.5-0.1c0.6,0,1.2,0,1.8,0c1.4,0,2.9,0.2,4.3,0.5
			c1.4,0.3,2.6,0.8,3.8,1.5s2.1,1.7,2.6,3c0.7,1.3,1,2.8,1,4.7c0,1.2-0.2,2.2-0.7,3.2c-0.5,0.9-0.9,1.8-1.6,2.5
			c-0.7,0.8-1.4,1.4-2.3,2c-0.9,0.6-1.8,1-2.8,1.4l-0.3,0.1l10.2,13.9c-0.3,0.1-0.6,0.1-0.9,0.1s-0.6,0-0.9,0c-0.3,0-0.6,0-0.9,0
			s-0.6-0.1-0.9-0.1l-11.3-15v-0.2l1-0.3c1-0.3,2.1-0.6,3-1s1.8-0.9,2.5-1.5c0.7-0.6,1.3-1.4,1.8-2.2c0.5-0.8,0.7-1.8,0.7-3
			c0-2.3-0.7-4.1-2.2-5.2c-1.4-1.2-3.3-1.7-5.9-1.7c-0.7,0-1.2,0-1.7,0.1s-1.2,0.1-2,0.2v29.9c-0.2,0-0.5,0.1-0.8,0.1
			c-0.3,0-0.6,0-0.8,0c-0.3,0-0.6,0-0.8,0c-0.2,0-0.6-0.1-0.7-0.1C67.1,50.6,67.1,18.1,67.1,18.1z"/>
		<path d="M99.6,18.2c0.5-0.1,0.9-0.1,1.5-0.2c0.6-0.1,1.3-0.1,2-0.2c0.7-0.1,1.4-0.1,2.1-0.1s1.3-0.1,2-0.1c2.8,0,5.2,0.3,7.4,1.2
			c2.1,0.8,3.8,1.8,5.2,3.2s2.4,3.1,3,5.2c0.7,2.1,1,4.4,1,6.9c0,11.2-5.5,16.8-16.6,16.8c-0.7,0-1.3,0-2.1-0.1
			c-0.7-0.1-1.4-0.1-2.1-0.1c-0.7,0-1.3-0.1-2-0.2c-0.6-0.1-1-0.1-1.5-0.2L99.6,18.2L99.6,18.2z M102.7,47.9c0.6,0.1,1.2,0.1,2,0.2
			c0.7,0.1,1.5,0.1,2.3,0.1c2.1,0,3.9-0.2,5.6-0.7s3.1-1.2,4.3-2.3c1.2-1,2.1-2.5,2.6-4.3c0.7-1.8,0.9-4,0.9-6.7
			c0-4.6-1.2-8.1-3.6-10.2c-2.4-2.2-5.6-3.2-9.9-3.2c-0.7,0-1.4,0-2.2,0.1c-0.8,0.1-1.4,0.1-2,0.2v26.7H102.7z"/>
		<path d="M135.8,47c0.5,0.1,0.8,0.2,1.3,0.5c0.5,0.2,0.9,0.3,1.5,0.5c0.6,0.1,1.2,0.2,1.8,0.3s1.5,0.1,2.4,0.1
			c1.4,0,2.6-0.2,3.7-0.6c1-0.3,2-0.8,2.5-1.4c0.7-0.6,1.2-1.3,1.5-2.1s0.5-1.6,0.5-2.5s-0.1-1.6-0.3-2.3c-0.2-0.7-0.6-1.3-1.2-1.8
			c-0.6-0.6-1.3-1-2.3-1.5c-0.9-0.5-2.2-1-3.7-1.6c-1-0.5-2.1-0.8-3-1.3c-0.9-0.5-1.8-1-2.5-1.6c-0.7-0.7-1.3-1.4-1.7-2.3
			c-0.5-0.9-0.7-2.1-0.7-3.3c0-2.4,0.9-4.4,2.6-5.9c1.7-1.5,4.3-2.3,7.7-2.3c0.7,0,1.3,0.1,2.1,0.1c0.7,0.1,1.3,0.1,2,0.2
			c0.6,0.1,1.2,0.2,1.6,0.3c0.5,0.1,0.9,0.2,1.2,0.3c-0.1,0.5-0.1,0.9-0.2,1.4c-0.1,0.5-0.2,0.9-0.3,1.3c-0.7-0.2-1.6-0.5-2.8-0.7
			c-1.2-0.2-2.3-0.3-3.3-0.3c-2.5,0-4.3,0.6-5.4,1.5c-1.2,0.9-1.6,2.3-1.6,3.9c0,0.8,0.2,1.5,0.5,2.1c0.3,0.6,0.8,1.2,1.4,1.5
			c0.6,0.5,1.3,0.8,2.1,1.3c0.8,0.3,1.6,0.7,2.6,1c1.3,0.6,2.4,1,3.5,1.5c1,0.6,2.1,1.2,2.8,2s1.4,1.5,1.8,2.5
			c0.5,0.9,0.7,2.2,0.7,3.5c0,1.5-0.3,2.9-0.8,4.1c-0.6,1.2-1.4,2.3-2.4,3c-1,0.8-2.3,1.4-3.8,2c-1.5,0.5-3.1,0.7-5,0.7
			s-3.2-0.1-4.4-0.3s-2.3-0.6-3.2-0.9c0.1-0.5,0.2-0.9,0.3-1.5C135.4,47.9,135.5,47.5,135.8,47z"/>
		<path d="M196.2,51.2c-2.3,0-4.3-0.5-5.9-1.3c-1.6-0.8-3-2-4.1-3.5c-1-1.5-2-3.2-2.5-5.3s-0.8-4.3-0.8-6.7c0-2.4,0.3-4.6,0.8-6.7
			c0.6-2.1,1.4-3.8,2.5-5.3c1-1.5,2.5-2.6,4.1-3.5c1.6-0.8,3.7-1.3,5.9-1.3c2.3,0,4.3,0.5,5.9,1.3c1.6,0.8,3,2,4.1,3.5
			c1,1.5,2,3.2,2.5,5.3s0.8,4.3,0.8,6.7c0,2.4-0.3,4.6-0.8,6.7c-0.6,2.1-1.4,3.8-2.5,5.3c-1.2,1.5-2.5,2.6-4.1,3.5
			S198.5,51.2,196.2,51.2z M196.2,48.3c1.7,0,3.2-0.3,4.5-1c1.3-0.7,2.3-1.6,3.1-2.9c0.8-1.3,1.5-2.6,1.8-4.4
			c0.5-1.7,0.6-3.6,0.6-5.6c0-2.1-0.2-3.9-0.6-5.6c-0.5-1.7-1-3.1-1.8-4.4c-0.8-1.2-2-2.2-3.1-2.9c-1.3-0.7-2.8-1-4.5-1
			c-1.7,0-3.2,0.3-4.5,1c-1.3,0.7-2.3,1.6-3.1,2.9c-0.8,1.2-1.4,2.6-1.8,4.4s-0.6,3.6-0.6,5.6c0,2.1,0.2,3.9,0.6,5.6
			c0.5,1.7,1,3.1,1.8,4.4c0.8,1.3,1.8,2.2,3.1,2.9C193,47.9,194.5,48.3,196.2,48.3z"/>
		<path d="M223,18.2h15.9c0,0.2,0.1,0.5,0.1,0.7c0,0.2,0,0.5,0,0.7c0,0.2,0,0.5,0,0.7c0,0.3-0.1,0.6-0.1,0.7h-12.8v10.9h11.1
			c0,0.2,0.1,0.5,0.1,0.7c0,0.2,0,0.5,0,0.7c0,0.2,0,0.5,0,0.7c0,0.3-0.1,0.6-0.1,0.7h-11.1v15.7c-0.2,0-0.5,0.1-0.7,0.1
			c-0.3,0-0.6,0-0.8,0s-0.6,0-0.9,0s-0.6-0.1-0.7-0.1L223,18.2L223,18.2z"/>
		<path d="M276,18.2c0.2,0,0.5-0.1,0.8-0.1s0.7,0,1,0s0.7,0,1,0s0.6,0.1,0.8,0.1l10.8,32.4c-0.2,0-0.5,0.1-0.8,0.1s-0.7,0-0.9,0
			s-0.6,0-0.8,0c-0.2,0-0.6-0.1-0.8-0.1l-2.6-8.2h-13.2l-2.5,8.2c-0.2,0-0.6,0.1-0.8,0.1c-0.2,0-0.6,0-0.9,0c-0.3,0-0.6,0-0.9,0
			s-0.6-0.1-0.7-0.1L276,18.2z M283.6,39.5l-5.8-18l-5.8,18H283.6z"/>
		<path d="M16.7,63.1c1.5-0.2,3.2-0.3,5.2-0.3c0.8,0,1.5,0,2.3,0.1c0.8,0.1,1.5,0.1,2.3,0.3L33,97.6l7.8-34.3
			c0.8-0.1,1.6-0.2,2.3-0.3s1.5-0.1,2.2-0.1c1.3,0,2.6,0.1,4.1,0.3l8.2,35.2l6.6-35.2c1.3-0.2,2.6-0.3,4-0.3c0.8,0,1.6,0.1,2.5,0.1
			c0.8,0.1,1.6,0.2,2.3,0.2l-10.9,45.6c-1.5,0.2-3.1,0.3-4.7,0.3c-1.6,0-3.3-0.1-5.2-0.3l-7.4-30.4l-7.8,30.4c-1,0.1-2,0.2-2.6,0.2
			c-0.8,0.1-1.6,0.1-2.5,0.1c-1.3,0-2.8-0.1-4.3-0.3L16.7,63.1z"/>
		<path d="M78.5,63.1h25.9c0.2,1.3,0.3,2.5,0.3,3.9s-0.1,2.8-0.3,4H87.7V81H101c0.2,1.4,0.3,2.6,0.3,3.9c0,1.4-0.1,2.6-0.3,4H87.7
			v11.9h17c0.2,1.3,0.3,2.5,0.3,3.9s-0.1,2.8-0.3,4H78.5V63.1L78.5,63.1z"/>
		<path d="M122.7,63.1c0.9-0.1,1.7-0.2,2.5-0.3c0.8-0.1,1.6-0.1,2.6-0.1c0.8,0,1.6,0.1,2.5,0.1c0.8,0.1,1.6,0.2,2.6,0.3l14.3,45.6
			c-1.7,0.2-3.5,0.3-5.1,0.3s-3.1-0.1-4.7-0.3l-2.5-9.1h-15l-2.6,9.1c-1.5,0.2-3,0.3-4.4,0.3c-1.5,0-3.1-0.1-4.6-0.3L122.7,63.1z
			 M132.9,91.9l-5.2-19.1l-5.5,19.1H132.9z"/>
		<path d="M156.9,71h-11.4c-0.2-1.3-0.3-2.6-0.3-4c0-1.3,0.1-2.6,0.3-3.9h32c0.2,1.3,0.3,2.5,0.3,3.9s-0.1,2.8-0.3,4h-11.4v37.8
			c-0.8,0.1-1.5,0.2-2.3,0.2c-0.8,0.1-1.5,0.1-2.2,0.1c-0.7,0-1.5,0-2.3-0.1s-1.6-0.1-2.5-0.2V71H156.9z"/>
		<path d="M184,63.1c1.5-0.2,3.1-0.3,4.6-0.3c1.5,0,3.1,0.1,4.7,0.3v18h15.3v-18c1.5-0.2,3.1-0.3,4.6-0.3s3.1,0.1,4.7,0.3v45.6
			c-1.6,0.2-3.1,0.3-4.6,0.3c-1.5,0-3.1-0.1-4.7-0.3V89h-15.3v19.7c-1.6,0.2-3.1,0.3-4.6,0.3c-1.5,0-3.1-0.1-4.7-0.3V63.1z"/>
		<path d="M226.8,63.1h25.9c0.2,1.3,0.3,2.5,0.3,3.9s-0.1,2.8-0.3,4h-16.6V81h13.2c0.2,1.4,0.3,2.6,0.3,3.9c0,1.4-0.1,2.6-0.3,4
			h-13.2v11.9h17c0.2,1.3,0.3,2.5,0.3,3.9s-0.1,2.8-0.3,4H227L226.8,63.1L226.8,63.1z"/>
		<path d="M261,63.1c1.8-0.2,3.7-0.5,5.2-0.6c1.6-0.1,3.5-0.2,5.4-0.2c2.3,0,4.6,0.2,6.9,0.7c2.3,0.5,4.3,1.2,6.1,2.3
			c1.8,1,3.2,2.5,4.4,4.4c1.2,1.8,1.6,4.1,1.6,7c0,1.6-0.2,3.1-0.7,4.5c-0.5,1.4-0.9,2.4-1.6,3.3c-0.7,0.9-1.4,1.8-2.2,2.5
			c-0.8,0.7-1.5,1.3-2.2,1.6l-1,0.7l11.1,19.2c-0.8,0.1-1.7,0.2-2.6,0.2c-0.9,0-2,0.1-2.9,0.1c-1.6,0-3.2-0.1-4.7-0.3l-11.9-21.2
			l1.5-0.8c0.6-0.3,1.3-0.7,2.2-1.2c0.8-0.5,1.6-1,2.4-1.7c0.8-0.7,1.4-1.5,2.1-2.5c0.6-1,0.8-2.2,0.8-3.5c0-2.6-0.8-4.6-2.3-5.9
			c-1.5-1.3-3.5-1.8-5.9-1.8c-0.9,0-1.8,0.1-2.5,0.2v38.6c-0.8,0.1-1.5,0.2-2.3,0.2c-0.7,0.1-1.5,0.1-2.2,0.1c-0.7,0-1.5,0-2.3-0.1
			s-1.6-0.1-2.5-0.2L261,63.1L261,63.1z"/>
	</g>
</g>
</svg>
